<svg width="40" height="40" viewBox="0 0 40 40" fill="none" xmlns="http://www.w3.org/2000/svg">
  <rect x="2" y="2" width="36" height="36" rx="9" fill="#101010"/>
  <path d="M21.3 11.5C21.8 11.5 22.1 12.1 21.8 12.5L15.2 20L21.8 27.5C22.1 27.9 21.8 28.5 21.3 28.5H17.1C16.6 28.5 16.2 28.3 15.9 27.9L9.8 20.9C9.4 20.4 9.4 19.6 9.8 19.1L15.9 12.1C16.2 11.7 16.6 11.5 17.1 11.5H21.3Z" fill="#FFFFFF"/>
  <path d="M30.3 11.5C30.8 11.5 31.1 12.1 30.8 12.5L24.2 20L30.8 27.5C31.1 27.9 30.8 28.5 30.3 28.5H26.1C25.6 28.5 25.2 28.3 24.9 27.9L18.8 20.9C18.4 20.4 18.4 19.6 18.8 19.1L24.9 12.1C25.2 11.7 25.6 11.5 26.1 11.5H30.3Z" fill="#FFFFFF"/>
</svg>
